<svg width="44" height="44" viewBox="0 0 44 44" fill="none" xmlns="http://www.w3.org/2000/svg">
<path d="M34.2702 20.8957H43.7041C43.8515 20.8957 43.9989 20.7486 43.9989 20.6014C43.3355 10.7419 36.1865 2.57465 26.7526 0.514453C26.5315 0.440875 26.3104 0.735189 26.5315 0.955925C30.9536 5.88569 33.7543 12.9492 34.0491 20.675C33.9754 20.8221 34.1228 20.8957 34.2702 20.8957Z" fill="#091E42"/>
<path d="M22.1841 0C22.1104 0 22.0367 0 21.963 0C21.8893 0 21.8156 0 21.7419 0C16.0668 4.34114 12.5292 12.0669 12.1606 20.602C12.1606 20.7492 12.308 20.8963 12.4555 20.8963H31.4705C31.6179 20.8963 31.7653 20.7492 31.7653 20.602C31.4705 12.0669 27.8591 4.34114 22.1841 0Z" fill="#36B37E"/>
<path d="M12.4555 23.1035C12.308 23.1035 12.1606 23.2507 12.1606 23.3978C12.5292 32.0065 16.0668 39.6587 21.7419 43.9998C21.8156 43.9998 21.8893 43.9998 21.963 43.9998C22.0367 43.9998 22.1104 43.9998 22.1841 43.9998C27.8591 39.6587 31.3968 31.9329 31.7653 23.3978C31.7653 23.2507 31.6179 23.1035 31.4705 23.1035H12.4555Z" fill="#091E42"/>
<path d="M33.9754 23.3243C33.6806 31.05 30.9536 38.1136 26.5315 43.0433C26.3841 43.2641 26.5315 43.5584 26.7526 43.4848C36.1864 41.4246 43.4092 33.2574 43.9988 23.3978C43.9988 23.2507 43.8514 23.1035 43.704 23.1035H34.2702C34.1228 23.1035 33.9754 23.2507 33.9754 23.3243Z" fill="#36B37E"/>
<path d="M9.72815 23.1035H0.294319C0.146915 23.1035 -0.000488281 23.2507 -0.000488281 23.3978C0.589126 33.2574 7.81191 41.4246 17.2457 43.4848C17.4668 43.5584 17.688 43.2641 17.4668 43.0433C12.971 38.1136 10.2441 31.05 9.94926 23.3243C10.023 23.2507 9.87556 23.1035 9.72815 23.1035Z" fill="#36B37E"/>
<path d="M10.023 20.675C10.3178 12.9492 13.0447 5.88569 17.4668 0.955925C17.6143 0.735189 17.4668 0.440875 17.2457 0.514453C7.81191 2.57465 0.589126 10.7419 -0.000488281 20.6014C-0.000488281 20.7486 0.146915 20.8957 0.294319 20.8957H9.72815C9.87556 20.8957 10.023 20.8221 10.023 20.675Z" fill="#091E42"/>
</svg>
